<?xml version="1.0" encoding="UTF-8" standalone="no"?>
<!DOCTYPE svg PUBLIC "-//W3C//DTD SVG 1.1//EN" "http://www.w3.org/Graphics/SVG/1.1/DTD/svg11.dtd">
<svg width="100%" height="100%" viewBox="0 0 780 259" version="1.1" xmlns="http://www.w3.org/2000/svg" xmlns:xlink="http://www.w3.org/1999/xlink" xml:space="preserve" xmlns:serif="http://www.serif.com/" style="fill-rule:evenodd;clip-rule:evenodd;stroke-linejoin:round;stroke-miterlimit:2;">
    <g transform="matrix(1,0,0,1,-546.905273,-589.844653)">
        <g>
            <g id="logo-kmon-preta.png" serif:id="logo kmon preta.png" transform="matrix(1,0,0,1,544,587)">
                <path d="M611.33,132.605C609.684,132.579 609.683,132.519 609.553,132.577C609.416,132.637 607.357,136.54 606.137,138.239C587.373,164.359 562.067,170.357 559.408,171.222C553.215,173.237 538.314,175.418 528.544,174.119C526.772,173.884 490.48,172.607 465.825,138.269C463.793,135.439 462.688,132.579 462.513,132.482C462.142,132.275 460.883,132.472 460.761,132.644C460.532,132.969 460.642,134.364 460.654,134.513C460.985,138.693 460.932,138.686 460.935,167.5C460.936,172.879 461.616,174.592 457.5,174.578C444.167,174.576 430.833,174.573 417.5,174.57C404.744,174.57 404.295,174.802 403.641,173.432C403.322,172.763 403.357,172.724 403.357,110.5C403.357,96.598 403.827,96.622 403.771,95.416C403.762,95.219 402.883,90.356 401.302,95.348C399.877,99.845 397.599,103.635 365.095,170.314C363.13,174.346 362.712,174.57 358.5,174.57C301.455,174.572 301.457,174.663 296.497,174.576C292.807,174.511 293.444,171.648 293.448,169.5C293.496,139.588 293.317,101.085 293.582,98.499C293.876,95.625 293.775,95.62 293.804,95.371C293.834,95.116 294.149,94.86 294.027,94.635C293.926,94.448 293.598,94.66 293.392,94.609C293.241,94.572 292.096,93.652 291.333,95.34C288.525,101.552 275.799,122.611 248.034,171.224C245.92,174.926 244.584,174.574 241.5,174.571C216.981,174.545 215.556,174.708 214.601,174.239C214.209,174.046 213.184,173.543 210.944,170.186C210.108,168.932 206.238,163.133 200.249,154.67C196.373,149.194 196.151,148.86 197.242,146.379C197.376,146.076 249.204,47.655 265.184,17.336C271.08,6.149 271.451,4.691 273.436,4.233C273.963,4.112 273.963,4.126 331.5,4.126C343.109,4.126 343.94,3.838 344.44,5.519C344.608,6.081 344.589,6.085 344.589,85.5C344.589,98.494 344.144,98.472 344.197,99.599C344.256,100.825 344.196,101.232 345.427,101.171C346.537,101.115 346.313,100.722 346.712,99.685C347.395,97.911 347.693,97.135 357.969,78.763C361.17,73.039 396.732,9.455 398.035,7.232C400.012,3.862 400.557,4.127 404.5,4.125C418.5,4.125 432.5,4.125 446.5,4.126C459.665,4.126 460.221,3.874 460.755,5.397C460.962,5.989 460.935,6.011 460.935,32.5C460.935,43.443 460.203,43.584 460.796,44.32C460.902,44.451 462.218,44.597 462.473,44.462C462.758,44.311 463.605,41.787 465.302,39.364C469.51,33.356 484.854,11.914 517.463,4.351C526.82,2.181 544.483,2.832 548.513,3.395C580.463,7.864 598.003,28.542 602.304,33.66C608.301,40.798 609.08,44.111 609.589,44.371C609.857,44.508 610.189,44.434 610.49,44.433C611.849,44.43 611.551,43.848 611.412,42.49C611.065,39.08 611.063,39.091 611.063,33.5C611.063,12.751 611.053,12.747 611.127,12.404C611.165,12.228 611.38,11.233 612.555,10.674C612.905,10.507 612.931,10.528 643.5,10.528C667.284,10.528 667.389,10.457 668.078,10.986C668.995,11.692 668.862,11.938 668.86,27.5C668.859,33.963 668.481,34.404 669.434,34.618C670.702,34.902 670.716,34.645 671.675,33.75C674.092,31.494 681.302,26.795 686.732,23.928C706.852,13.304 723.652,12.46 726.459,12.094C735.172,10.958 753.932,11.642 766.41,21.615C777.937,30.827 779.437,41.766 780.116,48.529C780.326,50.626 780.302,50.622 780.302,153.5C780.302,172.757 780.395,172.888 779.719,173.682C778.916,174.627 778.078,174.574 776.5,174.574C772.34,174.576 726.99,174.589 724.499,174.577C720.416,174.558 721.08,172.785 721.081,166.5C721.082,76.285 721.103,76.277 720.818,73.465C718.768,53.199 694.533,54.806 681.727,62.865C673.847,67.824 672.645,73.312 672.389,74.477C672.074,75.917 672.108,75.92 672.108,165.5C672.108,170.995 672.51,173.922 670.491,174.468C669.686,174.685 641.656,174.516 614.5,174.579C611.308,174.587 611.053,173.831 611.059,170.501C611.116,139.68 610.848,139.669 611.394,134.51C611.547,133.063 611.346,133.073 611.33,132.605ZM537.495,129.29C537.382,129.289 516.803,131.34 502.752,112.316C491.895,97.618 491.503,73.732 508.331,58.314C521.181,46.542 543.247,42.09 562.116,56.958C567.937,61.544 571.681,68.465 572.299,69.608C580.069,83.971 579.54,109.146 557.366,123.28C552.347,126.479 547.497,127.66 546.586,127.882C542.087,128.977 542.106,129.079 537.495,129.29Z" style="fill-opacity:0.99;"/>
                <path d="M141.501,4.124C169.205,4.136 206.514,4.107 206.632,4.133C209.072,4.676 206.829,7.713 205.749,9.635C203.791,13.12 168.281,78.266 165.027,84.236C164.324,85.525 157.219,98.559 156.198,100.338C154.527,103.246 155.293,103.615 158.885,109.244C159.469,110.16 159.612,110.056 166.41,120.559C169.269,124.976 172.215,129.186 185.982,150.18C186.675,151.237 192.625,160.311 194.733,163.346C198.911,169.365 206.135,181.323 207.71,182.131C208.748,182.664 208.819,182.599 243.5,182.599C780.108,182.599 780.132,182.586 780.444,182.715C782.468,183.552 782.095,184.267 782.115,197.501C782.117,199.132 782.457,199.193 781.756,200.655C781.176,201.864 780.754,201.695 761.5,201.695C137.894,201.695 137.906,201.699 137.487,201.659C134.478,201.372 133.887,198.571 130.198,192.684C129.63,191.777 86.199,119.419 85.617,118.43C81.489,111.415 80.33,110.533 81.202,108.377C81.495,107.653 129.663,18.677 133.865,10.697C136.717,5.284 137.153,5.005 137.63,4.699C138.741,3.989 140.914,4.133 141.501,4.124Z" style="fill-opacity:0.99;"/>
                <path d="M3.824,197.501C3.823,134.168 3.822,70.835 3.821,7.502C3.824,4.125 4.838,4.114 7.501,4.122C11.061,4.133 65.035,4.116 65.528,4.132C68.613,4.229 68.34,6.165 68.338,8.499C68.33,16.844 68.342,199.387 68.332,199.484C68.31,199.706 68.157,201.262 66.525,201.605C66.045,201.706 66.043,201.695 16.5,201.695C5.386,201.695 5.113,201.89 4.174,200.705C3.745,200.163 3.934,200.093 3.824,197.501Z" style="fill-opacity:0.99;"/>
                <path d="M120.496,241.196C119.724,241.186 117.672,241.481 116.841,240.251C116.203,239.306 116.072,233.865 116.953,232.908C117.826,231.961 125.012,231.304 126.706,234.371C126.918,234.756 128.421,237.476 125.735,239.784C123.923,241.34 120.967,241.175 120.496,241.196Z" style="fill-opacity:0.04;"/>
                <path d="M702.5,241.204C700.579,240.983 700.364,241.429 699.547,240.454C698.722,239.47 698.92,237.08 698.919,235.498C698.918,232.553 699.641,231.949 704.517,232.241C711.688,232.672 709.432,238.247 709.333,238.414C707.508,241.504 703.677,241.171 702.5,241.204Z" style="fill-opacity:0.05;"/>
                <path d="M54.5,245.541C52.647,245.507 52.655,245.539 52.499,245.504C51.573,245.299 51.379,244.688 51.343,244.575C50.98,243.433 51.694,241.853 51.785,241.596C53.028,238.061 53.415,234.155 53.818,233.765C53.947,233.64 55.211,233.528 55.391,233.635C55.768,233.86 56.263,236.328 56.312,236.569C57.37,241.838 58.934,243.601 57.917,244.811C57.056,245.836 56.83,245.381 54.5,245.541Z" style="fill-opacity:0.09;"/>
                <path d="M289.5,245.541C288.831,245.495 288.158,245.608 287.49,245.562C287.33,245.551 286.066,245.464 285.867,244.401C285.718,243.61 285.906,243.621 286.559,241.518C287.659,237.97 287.294,237.897 288.277,234.328C288.604,233.14 290.086,233.701 290.179,233.79C290.476,234.075 291.353,238.134 291.436,238.517C291.913,240.728 293.269,242.841 292.666,244.591C292.237,245.836 289.982,245.531 289.5,245.541Z" style="fill-opacity:0.1;"/>
            </g>
            <g transform="matrix(1,0,0,1,-5,-63)">
                <g transform="matrix(50,0,0,50,1332.764648,910.988281)">
                </g>
                <text x="549px" y="910.988px" style="font-family:'OpenSans-Bold', 'Open Sans';font-weight:700;font-size:50px;">CARRYNG AROUND THE WORLD</text>
            </g>
        </g>
    </g>
</svg>
